<svg viewBox="0 0 420 300" xmlns="http://www.w3.org/2000/svg" xmlns:xlink="http://www.w3.org/1999/xlink" font-family="sans-serif">
  <rect width="100%" height="100%" fill="white" />

  <defs>
    <radialGradient id="meshGradient" cx="100%" cy="0%" r="100%">
      <stop offset="0%" stop-color="#E74C3C" /> <stop offset="35%" stop-color="#F1C40F" /> <stop offset="70%" stop-color="#2ECC71" /> <stop offset="100%" stop-color="#21618C" /> </radialGradient>
  </defs>

  <rect x="110" y="80" width="200" height="200" fill="url(#meshGradient)" stroke="none" />

  <g id="elements" stroke="#34495E" stroke-width="0.75" fill="none">
    <rect x="110" y="80" width="200" height="200" />

    <path d="M110 80 L150 80 L170 110 Z" />
    <path d="M110 80 L170 110 L110 113.3 Z" />
    <path d="M150 80 L190 80 L210 106 Z" />
    <path d="M150 80 L210 106 L170 110 Z" />
    <path d="M190 80 L230 80 L270 120 Z" />
    <path d="M190 80 L270 120 L210 106 Z" />
    <path d="M230 80 L270 80 L290 98 Z" />
    <path d="M230 80 L290 98 L270 120 Z" />
    <path d="M270 80 L310 80 L290 98 Z" />
    <path d="M290 98 L310 80 L310 113.3 Z" />

    <path d="M110 113.3 L170 110 L160 150 Z" />
    <path d="M110 113.3 L160 150 L110 146.6 Z" />
    <path d="M170 110 L210 106 L220 140 Z" />
    <path d="M170 110 L220 140 L160 150 Z" />
    <path d="M210 106 L270 120 L280 150 Z" />
    <path d="M210 106 L280 150 L220 140 Z" />
    <path d="M270 120 L290 98 L310 113.3 Z" />
    <path d="M270 120 L310 113.3 L280 150 Z" />
    <path d="M280 150 L310 113.3 L310 146.6 Z" />

    <path d="M110 146.6 L160 150 L140 180 Z" />
    <path d="M110 146.6 L140 180 L110 180 Z" />
    <path d="M160 150 L220 140 L190 170 Z" />
    <path d="M160 150 L190 170 L140 180 Z" />
    <path d="M220 140 L280 150 L260 190 Z" />
    <path d="M220 140 L260 190 L190 170 Z" />
    <path d="M280 150 L310 146.6 L310 180 Z" />
    <path d="M280 150 L310 180 L280 210 Z" />
    <path d="M280 150 L280 210 L260 190 Z" />

    <path d="M110 180 L140 180 L170 220 Z" />
    <path d="M110 180 L170 220 L110 213.3 Z" />
    <path d="M140 180 L190 170 L170 220 Z" />
    <path d="M190 170 L260 190 L220 230 Z" />
    <path d="M190 170 L220 230 L170 220 Z" />
    <path d="M260 190 L280 210 L310 213.3 Z" />
    <path d="M260 190 L310 213.3 L310 246.6 Z" />
    <path d="M260 190 L310 246.6 L260 250 Z" />
    <path d="M260 190 L260 250 L220 230 Z" />
    <path d="M280 210 L310 213.3 L280 210 Z" stroke="none" /> <path d="M110 213.3 L170 220 L140 240 Z" />
    <path d="M110 213.3 L140 240 L110 246.6 Z" />
    <path d="M110 246.6 L140 240 L150 280 Z" />
    <path d="M110 246.6 L150 280 L110 280 Z" />
    <path d="M170 220 L220 230 L200 260 Z" />
    <path d="M170 220 L200 260 L140 240 Z" />
    <path d="M140 240 L200 260 L150 280 Z" />
    <path d="M220 230 L260 250 L200 260 Z" />
    <path d="M200 260 L260 250 L230 280 Z" />
    <path d="M200 260 L230 280 L190 280 Z" />
    <path d="M200 260 L190 280 L150 280 Z" />
    <path d="M260 250 L290 260 L270 280 Z" />
    <path d="M260 250 L270 280 L230 280 Z" />
    <path d="M260 250 L310 246.6 L290 260 Z" />
    <path d="M310 246.6 L310 280 L290 260 Z" />
    <path d="M290 260 L310 280 L270 280 Z" />
  </g>

  <g id="nodes" fill="#AED6F1" stroke="#34495E" stroke-width="0.5">
    <circle cx="110" cy="80" r="3" />
    <circle cx="150" cy="80" r="3" />
    <circle cx="190" cy="80" r="3" />
    <circle cx="230" cy="80" r="3" />
    <circle cx="270" cy="80" r="3" />
    <circle cx="310" cy="80" r="3" />

    <circle cx="310" cy="113.3" r="3" />
    <circle cx="310" cy="146.6" r="3" />
    <circle cx="310" cy="180" r="3" />
    <circle cx="310" cy="213.3" r="3" />
    <circle cx="310" cy="246.6" r="3" />
    <circle cx="310" cy="280" r="3" />

    <circle cx="270" cy="280" r="3" />
    <circle cx="230" cy="280" r="3" />
    <circle cx="190" cy="280" r="3" />
    <circle cx="150" cy="280" r="3" />
    <circle cx="110" cy="280" r="3" />

    <circle cx="110" cy="246.6" r="3" />
    <circle cx="110" cy="213.3" r="3" />
    <circle cx="110" cy="180" r="3" />
    <circle cx="110" cy="146.6" r="3" />
    <circle cx="110" cy="113.3" r="3" />

    <circle cx="170" cy="110" r="3" />
    <circle cx="210" cy="106" r="3" />
    <circle cx="270" cy="120" r="3" />
    <circle cx="290" cy="98" r="3" />
    <circle cx="280" cy="150" r="3" />
    <circle cx="220" cy="140" r="3" />
    <circle cx="160" cy="150" r="3" />
    <circle cx="140" cy="180" r="3" />
    <circle cx="190" cy="170" r="3" />
    <circle cx="260" cy="190" r="3" />
    <circle cx="280" cy="210" r="3" />
    <circle cx="220" cy="230" r="3" />
    <circle cx="170" cy="220" r="3" />
    <circle cx="140" cy="240" r="3" />
    <circle cx="200" cy="260" r="3" />
    <circle cx="260" cy="250" r="3" />
    <circle cx="290" cy="260" r="3" />
  </g>

  <g id="topLoads" stroke="#1E88E5" stroke-width="1.5" fill="none">
    <line x1="150" y1="50" x2="150" y2="76" />
    <path d="M148,70 L150,76 L152,70" />
    <line x1="190" y1="50" x2="190" y2="76" />
    <path d="M188,70 L190,76 L192,70" />
    <line x1="230" y1="50" x2="230" y2="76" />
    <path d="M228,70 L230,76 L232,70" />
    <line x1="270" y1="50" x2="270" y2="76" />
    <path d="M268,70 L270,76 L272,70" />
    <line x1="310" y1="50" x2="310" y2="76" />
    <path d="M308,70 L310,76 L312,70" />
  </g>

  <g id="rightLoads" stroke="#1E88E5" stroke-width="1.5" fill="none">
    <line x1="336" y1="113.3" x2="314" y2="113.3" />
    <path d="M319,111.3 L314,113.3 L319,115.3" />
    <line x1="336" y1="146.6" x2="314" y2="146.6" />
    <path d="M319,144.6 L314,146.6 L319,148.6" />
    <line x1="336" y1="180" x2="314" y2="180" />
    <path d="M319,178 L314,180 L319,182" />
    <line x1="336" y1="213.3" x2="314" y2="213.3" />
    <path d="M319,211.3 L314,213.3 L319,215.3" />
    <line x1="336" y1="246.6" x2="314" y2="246.6" />
    <path d="M319,244.6 L314,246.6 L319,248.6" />
  </g>

  <g id="fixedSupports" fill="none" stroke="#2C3E50" stroke-width="1">
    <path d="M100,105 L110,113.3 L100,121.6 L100,105 L96,105 M96,121.6 L100,121.6" />
    <line x1="96" y1="109" x2="100" y2="109" />
    <line x1="96" y1="113" x2="100" y2="113" />
    <line x1="96" y1="117" x2="100" y2="117" />

    <path d="M100,138.3 L110,146.6 L100,154.9 L100,138.3 L96,138.3 M96,154.9 L100,154.9" />
    <line x1="96" y1="142" x2="100" y2="142" />
    <line x1="96" y1="146" x2="100" y2="146" />
    <line x1="96" y1="150" x2="100" y2="150" />

    <path d="M100,171.6 L110,180 L100,188.3 L100,171.6 L96,171.6 M96,188.3 L100,188.3" />
    <line x1="96" y1="175" x2="100" y2="175" />
    <line x1="96" y1="179" x2="100" y2="179" />
    <line x1="96" y1="183" x2="100" y2="183" />

    <path d="M100,204.9 L110,213.3 L100,221.6 L100,204.9 L96,204.9 M96,221.6 L100,221.6" />
    <line x1="96" y1="208" x2="100" y2="208" />
    <line x1="96" y1="212" x2="100" y2="212" />
    <line x1="96" y1="216" x2="100" y2="216" />

    <path d="M100,238.3 L110,246.6 L100,254.9 L100,238.3 L96,238.3 M96,254.9 L100,254.9" />
    <line x1="96" y1="242" x2="100" y2="242" />
    <line x1="96" y1="246" x2="100" y2="246" />
    <line x1="96" y1="250" x2="100" y2="250" />
  </g>

  <g id="rollerSupports" fill="none" stroke="#2C3E50" stroke-width="1">
    <path d="M141.7,290 L150,280 L158.3,290 L141.7,290" />
    <circle cx="144.7" cy="293" r="2" />
    <circle cx="155.3" cy="293" r="2" />
    <line x1="138" y1="296" x2="162" y2="296" />
    <path d="M138,296 L138,299 M142,296 L142,299 M146,296 L146,299 M150,296 L150,299 M154,296 L154,299 M158,296 L158,299 M162,296 L162,299" />

    <path d="M181.7,290 L190,280 L198.3,290 L181.7,290" />
    <circle cx="184.7" cy="293" r="2" />
    <circle cx="195.3" cy="293" r="2" />
    <line x1="178" y1="296" x2="202" y2="296" />
    <path d="M178,296 L178,299 M182,296 L182,299 M186,296 L186,299 M190,296 L190,299 M194,296 L194,299 M198,296 L198,299 M202,296 L202,299" />

    <path d="M221.7,290 L230,280 L238.3,290 L221.7,290" />
    <circle cx="224.7" cy="293" r="2" />
    <circle cx="235.3" cy="293" r="2" />
    <line x1="218" y1="296" x2="242" y2="296" />
    <path d="M218,296 L218,299 M222,296 L222,299 M226,296 L226,299 M230,296 L230,299 M234,296 L234,299 M238,296 L238,299 M242,296 L242,299" />

    <path d="M261.7,290 L270,280 L278.3,290 L261.7,290" />
    <circle cx="264.7" cy="293" r="2" />
    <circle cx="275.3" cy="293" r="2" />
    <line x1="258" y1="296" x2="282" y2="296" />
    <path d="M258,296 L258,299 M262,296 L262,299 M266,296 L266,299 M270,296 L270,299 M274,296 L274,299 M278,296 L278,299 M282,296 L282,299" />
  </g>
</svg>
